<svg xmlns="http://www.w3.org/2000/svg" width="101" height="78" viewBox="0 0 101 78" fill="none">
            <path d="M100.363 47.7551C100.363 64.4694 77.9286 78 50.2469 78C22.434 77.8674 0 64.3368 0 47.7551C0 46.8265 0.131193 45.898 0.262386 45.102C2.49267 29.7143 24.0083 17.6428 50.2469 17.6428C76.4855 17.6428 98.0011 29.7143 100.231 45.2347C100.231 45.898 100.363 46.8265 100.363 47.7551Z" fill="#FFE37E" />
            <path d="M100.087 45.1021C99.3 48.8164 96.4138 51.8674 93.9211 55.847C91.4284 59.8266 87.8862 63.0103 82.6385 63.0103C80.0146 63.0103 77.1284 64.0715 74.8981 65.796C71.3559 68.5817 66.5018 69.3776 62.1724 68.4491C58.3678 67.6531 54.0385 67.9185 50.1027 69.245C43.6742 71.2348 38.1641 70.5715 32.7852 67.6531C27.9311 65.0001 22.8145 63.5409 18.0916 63.1429C11.1384 62.6123 7.20258 59.694 4.57872 54.1225C3.00441 50.6735 0.774129 48.1531 0.118164 45.1021C2.34844 29.7144 23.8641 17.6429 50.1027 17.6429C76.3412 17.5103 97.8569 29.5817 100.087 45.1021Z" fill="#FACB53" />
            <path d="M100.363 39.2648C100.363 43.9077 96.9515 47.224 94.0653 51.8669C91.5726 55.8465 88.0304 59.0302 82.7827 59.0302C80.1589 59.0302 77.2726 60.0914 75.0423 61.8159C71.3689 64.6016 66.646 65.3975 62.3166 64.4689C58.512 63.673 54.1827 63.9383 50.2469 65.2649C43.8184 67.2547 38.3083 66.5914 32.9294 63.673C28.0753 61.02 22.9588 59.5608 18.2358 59.2955C11.1514 58.7649 7.21561 55.7138 4.59175 50.1424C2.75505 46.1628 0 43.1118 0 39.2648C0 24.9383 22.434 13.3975 50.1157 13.3975C77.7974 13.3975 100.363 24.9383 100.363 39.2648Z" fill="#E6954B" />
            <path d="M100.363 30.2449C100.363 46.9592 77.9286 60.3572 50.2469 60.3572C22.434 60.3572 0 46.8266 0 30.2449C0 28.6531 0.262386 27.0613 0.655964 25.4694C4.46056 11.0102 25.189 0 50.1157 0C75.0423 0 95.902 11.0102 99.7066 25.4694C100.1 26.9286 100.363 28.5204 100.363 30.2449Z" fill="#FACB53" />
            <path d="M99.7156 25.4694C95.911 39.796 75.1826 50.8062 50.1247 50.8062C25.0669 50.8062 4.46963 39.796 0.665039 25.4694C4.46963 11.0102 25.1981 0 50.1247 0C75.0514 0 95.911 11.0102 99.7156 25.4694Z" fill="#FFE37E" />
            <path d="M68.8656 39.2878C73.7609 39.2878 77.7292 35.3194 77.7292 30.4242C77.7292 25.5289 73.7609 21.5605 68.8656 21.5605C63.9703 21.5605 60.002 25.5289 60.002 30.4242C60.002 35.3194 63.9703 39.2878 68.8656 39.2878Z" fill="#FF7892" />
            <path d="M29.8636 39.2878C34.7589 39.2878 38.7273 35.3194 38.7273 30.4242C38.7273 25.5289 34.7589 21.5605 29.8636 21.5605C24.9684 21.5605 21 25.5289 21 30.4242C21 35.3194 24.9684 39.2878 29.8636 39.2878Z" fill="#FF7892" />
            <path d="M45.3637 39.3893C50.0454 40.5195 60.3985 39.491 64.2771 31.9253C64.416 31.6575 64.3448 31.3271 64.1076 31.139C63.9924 31.0458 63.8518 31.0001 63.7111 31.0001C63.5671 31.0001 63.4214 31.0492 63.3028 31.1475C58.0771 35.5192 50.7029 35.5192 46.2973 35.5192C43.5269 35.5192 42.0002 35.5192 42.0002 36.7188C42.0002 37.9185 43.1948 38.8674 45.3637 39.3893Z" fill="#65471B" />
            <path d="M38.3192 29.6389C33.1722 29.6389 28.9998 25.4664 28.9998 20.3194C28.9998 15.1725 33.1722 11 38.3192 11C43.4662 11 47.6387 15.1725 47.6387 20.3194C47.6387 25.4664 43.4662 29.6389 38.3192 29.6389Z" fill="#F4F7F9" />
            <path d="M60.3466 29.6389C55.1996 29.6389 51.0271 25.4664 51.0271 20.3194C51.0271 15.1725 55.1996 11 60.3466 11C65.4936 11 69.666 15.1725 69.666 20.3194C69.666 25.4664 65.4936 29.6389 60.3466 29.6389Z" fill="#F4F7F9" />
            <path d="M62.0412 19.4723C59.7012 19.4723 57.8051 17.5762 57.8051 15.2362C57.8051 13.1147 59.3691 11.3728 61.4041 11.0645C62.7427 11.2153 63.9898 11.6541 65.0946 12.3116C65.8232 13.0724 66.2773 14.0992 66.2773 15.2362C66.2773 17.5762 64.3813 19.4723 62.0412 19.4723ZM40.0135 19.4723C37.6734 19.4723 35.7773 17.5762 35.7773 15.2362C35.7773 13.1147 37.3413 11.3728 39.3763 11.0645C40.7133 11.2153 41.9621 11.6541 43.0652 12.3116C43.7955 13.0724 44.2496 14.0992 44.2496 15.2362C44.2496 17.5762 42.3535 19.4723 40.0135 19.4723Z" fill="#65471B" />
        </svg>