<svg xmlns="http://www.w3.org/2000/svg" width="101" height="78" viewBox="0 0 101 78" fill="none">
            <path d="M100.363 47.7551C100.363 64.4694 77.9286 78 50.2469 78C22.434 77.8674 0 64.3368 0 47.7551C0 46.8265 0.131193 45.898 0.262386 45.102C2.49267 29.7143 24.0083 17.6428 50.2469 17.6428C76.4855 17.6428 98.0011 29.7143 100.231 45.2347C100.231 45.898 100.363 46.8265 100.363 47.7551Z" fill="#FFE37E" />
            <path d="M100.087 45.1021C99.3 48.8164 96.4138 51.8674 93.9211 55.847C91.4284 59.8266 87.8862 63.0103 82.6385 63.0103C80.0146 63.0103 77.1284 64.0715 74.8981 65.796C71.3559 68.5817 66.5018 69.3776 62.1724 68.4491C58.3678 67.6531 54.0385 67.9185 50.1027 69.245C43.6742 71.2348 38.1641 70.5715 32.7852 67.6531C27.9311 65.0001 22.8145 63.5409 18.0916 63.1429C11.1384 62.6123 7.20258 59.694 4.57872 54.1225C3.00441 50.6735 0.774129 48.1531 0.118164 45.1021C2.34844 29.7144 23.8641 17.6429 50.1027 17.6429C76.3412 17.5103 97.8569 29.5817 100.087 45.1021Z" fill="#FACB53" />
            <path d="M100.363 39.2648C100.363 43.9077 96.9515 47.224 94.0653 51.8669C91.5726 55.8465 88.0304 59.0302 82.7827 59.0302C80.1589 59.0302 77.2726 60.0914 75.0423 61.8159C71.3689 64.6016 66.646 65.3975 62.3166 64.4689C58.512 63.673 54.1827 63.9383 50.2469 65.2649C43.8184 67.2547 38.3083 66.5914 32.9294 63.673C28.0753 61.02 22.9588 59.5608 18.2358 59.2955C11.1514 58.7649 7.21561 55.7138 4.59175 50.1424C2.75505 46.1628 0 43.1118 0 39.2648C0 24.9383 22.434 13.3975 50.1157 13.3975C77.7974 13.3975 100.363 24.9383 100.363 39.2648Z" fill="#E6954B" />
            <path d="M100.363 30.2449C100.363 46.9592 77.9286 60.3572 50.2469 60.3572C22.434 60.3572 0 46.8266 0 30.2449C0 28.6531 0.262386 27.0613 0.655964 25.4694C4.46056 11.0102 25.189 0 50.1157 0C75.0423 0 95.902 11.0102 99.7066 25.4694C100.1 26.9286 100.363 28.5204 100.363 30.2449Z" fill="#FACB53" />
            <path d="M99.7156 25.4694C95.911 39.796 75.1826 50.8062 50.1247 50.8062C25.0669 50.8062 4.46963 39.796 0.665039 25.4694C4.46963 11.0102 25.1981 0 50.1247 0C75.0514 0 95.911 11.0102 99.7156 25.4694Z" fill="#FFE37E" />
            <path d="M69.1361 39.2881C74.0314 39.2881 77.9998 35.3197 77.9998 30.4244C77.9998 25.5292 74.0314 21.5608 69.1361 21.5608C64.2409 21.5608 60.2725 25.5292 60.2725 30.4244C60.2725 35.3197 64.2409 39.2881 69.1361 39.2881Z" fill="#FF7892" />
            <path d="M30.1342 39.2881C35.0294 39.2881 38.9978 35.3197 38.9978 30.4244C38.9978 25.5292 35.0294 21.5608 30.1342 21.5608C25.2389 21.5608 21.2705 25.5292 21.2705 30.4244C21.2705 35.3197 25.2389 39.2881 30.1342 39.2881Z" fill="#FF7892" />
            <path d="M69.1238 16.2419C68.67 16.2419 68.2162 16.0682 67.8705 15.7225C63.3022 11.1578 55.3639 12.6451 55.2859 12.6628C54.3144 12.856 53.3944 12.2249 53.2047 11.2677C53.015 10.3086 53.6337 9.37794 54.5928 9.18648C54.9952 9.10494 64.4544 7.29853 70.3754 13.2159C71.0685 13.909 71.0685 15.0294 70.3754 15.7225C70.0315 16.0682 69.5776 16.2419 69.1238 16.2419ZM30.1238 16.2419C29.6699 16.2419 29.2161 16.0682 28.8704 15.7225C28.1773 15.0294 28.1773 13.909 28.8704 13.2159C34.7914 7.29321 44.2542 9.10671 44.6531 9.18648C45.6139 9.37794 46.2361 10.3122 46.0429 11.273C45.8514 12.2303 44.9207 12.8543 43.9599 12.6646C43.8376 12.638 35.9312 11.1702 31.3771 15.7243C31.0314 16.0682 30.5776 16.2419 30.1238 16.2419ZM63.8056 25.1056C63.3518 25.1056 62.898 24.9319 62.5523 24.5862C60.2407 22.2728 55.3018 22.8595 53.5965 23.2814C52.6392 23.5154 51.6872 22.9358 51.4497 21.9874C51.2139 21.0372 51.7901 20.0781 52.7402 19.8406C53.07 19.759 60.8505 17.8711 65.0589 22.0795C65.7521 22.7727 65.7521 23.893 65.0589 24.5862C64.7133 24.9319 64.2594 25.1056 63.8056 25.1056ZM35.4419 25.1056C34.9881 25.1056 34.5343 24.9319 34.1886 24.5862C33.4955 23.893 33.4955 22.7727 34.1886 22.0795C38.3953 17.8729 46.1794 19.759 46.5091 19.8406C47.4575 20.0781 48.0336 21.0372 47.7979 21.9874C47.5639 22.9375 46.6048 23.5172 45.6529 23.2814C43.944 22.8613 39.0069 22.2763 36.697 24.5862C36.3496 24.9319 35.8958 25.1056 35.4419 25.1056Z" fill="#664500" />
            <path d="M40.7744 35.7429C40.7744 35.7429 42.5471 42.8338 49.6381 42.8338C56.729 42.8338 58.5017 35.7429 58.5017 35.7429C58.5017 35.7429 56.729 37.5157 49.6381 37.5157C42.5471 37.5157 40.7744 35.7429 40.7744 35.7429Z" fill="#664500" />
            <path d="M49.638 43.7195C41.9444 43.7195 39.9341 36.0347 39.9146 35.9567C39.8171 35.5703 39.9908 35.1679 40.3365 34.9693C40.6751 34.7814 41.0988 34.8293 41.3842 35.0969C41.4533 35.1572 43.2739 36.6286 49.638 36.6286C56.0978 36.6286 57.8759 35.1129 57.8936 35.0987C58.1861 34.8399 58.6187 34.7956 58.9519 34.9924C59.2852 35.1927 59.4554 35.5791 59.3614 35.9567C59.3419 36.0347 57.3317 43.7195 49.638 43.7195ZM42.4567 37.5291C43.4796 39.4153 45.6033 41.9468 49.638 41.9468C53.6728 41.9468 55.7983 39.4153 56.8193 37.5291C55.3657 37.9865 53.0948 38.4013 49.638 38.4013C46.1812 38.4013 43.9103 37.9865 42.4567 37.5291ZM40.7744 35.7422H40.7921H40.7744Z" fill="#664500" />
        </svg>